{"title":"American - The Bill Hicks Story (2009) DVDRip XviD AC3 peaSoup","uid":8974685,"size":734519296,"categoryP":"video","categoryS":"movies","magnet":"?xt=urn:btih:a07c52aa0faa3d34bc3499072a628fe64e69a25d&amp;dn=American+-+The+Bill+Hicks+Story+%282009%29+DVDRip+XviD+AC3+peaSoup&amp;tr=udp%3A%2F%2Ftracker.openbittorrent.com%3A80&amp;tr=udp%3A%2F%2Fopen.demonii.com%3A1337&amp;tr=udp%3A%2F%2Ftracker.coppersurfer.tk%3A6969&amp;tr=udp%3A%2F%2Fexodus.desync.com%3A6969","seeders":13,"leechers":2,"uploader":"peaSoup","files":-1,"time":1380407843,"description":"Storyline\n\nPhoto-animated feature documentary, uniquely narrated by the 10 people who knew Bill best.                                                                               &lt;a href=&quot; http://imageshack.us/a/img29/9487/qwqz.jpg&quot; rel=&quot;nofollow&quot; target=&quot;_NEW&quot;&gt; http://imageshack.us/a/img29/9487/qwqz.jpg&lt;/a&gt;                                          &lt;a href=&quot; http://imageshack.us/a/img94/4546/rqkh.jpg&quot; rel=&quot;nofollow&quot; target=&quot;_NEW&quot;&gt; http://imageshack.us/a/img94/4546/rqkh.jpg&lt;/a&gt;                                          &lt;a href=&quot; http://imageshack.us/a/img850/3650/h0yu.jpg&quot; rel=&quot;nofollow&quot; target=&quot;_NEW&quot;&gt; http://imageshack.us/a/img850/3650/h0yu.jpg&lt;/a&gt;                                         &lt;a href=&quot; http://imageshack.us/a/img197/7647/nxz5.jpg&quot; rel=&quot;nofollow&quot; target=&quot;_NEW&quot;&gt; http://imageshack.us/a/img197/7647/nxz5.jpg&lt;/a&gt;                                         &lt;a href=&quot; http://imageshack.us/a/img856/3576/b0u1.jpg&quot; rel=&quot;nofollow&quot; target=&quot;_NEW&quot;&gt; http://imageshack.us/a/img856/3576/b0u1.jpg&lt;/a&gt;                                          Format                                   : AVI\nFormat/Info                              : Audio Video Interleave\nFile size                                : 700 MiB\nDuration                                 : 1h 41mn\nOverall bit rate                         : 965 Kbps\nWriting application                      : VirtualDubMod 1.5.4.1 (build 2178/release)\nWriting library                          : VirtualDubMod build 2178/release\n\nVideo\nID                                       : 0\nFormat                                   : MPEG-4 Visual\nFormat profile                           : Advanced Simple@L5\nFormat settings, BVOP                    : 1\nFormat settings, QPel                    : No\nFormat settings, GMC                     : No warppoints\nFormat settings, Matrix                  : Custom\nCodec ID                                 : XVID\nCodec ID/Hint                            : XviD\nDuration                                 : 1h 41mn\nBit rate                                 : 510 Kbps\nWidth                                    : 720 pixels\nHeight                                   : 416 pixels\nDisplay aspect ratio                     : 1.731\nFrame rate                               : 25.000 fps\nColor space                              : YUV\nChroma subsampling                       : 4:2:0\nBit depth                                : 8 bits\nScan type                                : Progressive\nCompression mode                         : Lossy\nBits/(Pixel*Frame)                       : 0.068\nStream size                              : 370 MiB (53%)\nWriting library                          : XviD 1.2.1 (UTC 2008-12-04)\n\nAudio\nID                                       : 1\nFormat                                   : AC-3\nFormat/Info                              : Audio Coding 3\nMode extension                           : CM (complete main)\nFormat settings, Endianness              : Big\nCodec ID                                 : 2000\nDuration                                 : 1h 41mn\nBit rate mode                            : Constant\nBit rate                                 : 448 Kbps\nChannel(s)                               : 6 channels\nChannel positions                        : Front: L C R, Side: L R, LFE\nSampling rate                            : 48.0 KHz\nBit depth                                : 16 bits\nCompression mode                         : Lossy\nStream size                              : 325 MiB (46%)\nAlignment                                : Split accross interleaves\nInterleave, duration                     : 96 ms (2.40 video frames)\nInterleave, preload duration             : 96 ms\nLanguage                                 : English\n\n\n","torrent":{"xt":"urn:btih:a07c52aa0faa3d34bc3499072a628fe64e69a25d","amp;dn":"American+-+The+Bill+Hicks+Story+%282009%29+DVDRip+XviD+AC3+peaSoup","amp;tr":["udp%3A%2F%2Ftracker.openbittorrent.com%3A80","udp%3A%2F%2Fopen.demonii.com%3A1337","udp%3A%2F%2Ftracker.coppersurfer.tk%3A6969","udp%3A%2F%2Fexodus.desync.com%3A6969"],"infoHash":"a07c52aa0faa3d34bc3499072a628fe64e69a25d","infoHashBuffer":{"type":"Buffer","data":[160,124,82,170,15,170,61,52,188,52,153,7,42,98,143,230,78,105,162,93]},"announce":[],"urlList":[]}}